# File produced by Open Asset Import Library (http://www.assimp.sf.net)
# (assimp v3.0.1262)

mtllib Body1.stl.obj.mtl

# 228 vertex positions
v  0 0 0
v  353.553 0 353.553
v  0 150 0
v  0 150 0
v  353.553 0 353.553
v  353.553 150 353.553
v  461.94 0 191.342
v  0 0 0
v  461.94 150 191.342
v  461.94 150 191.342
v  0 0 0
v  0 150 0
v  353.553 0 353.553
v  361.182 0 345.757
v  353.553 150 353.553
v  353.553 150 353.553
v  361.182 0 345.757
v  361.182 150 345.757
v  361.182 150 345.757
v  361.182 0 345.757
v  368.639 0 337.795
v  361.182 150 345.757
v  368.639 0 337.795
v  368.639 150 337.795
v  368.639 150 337.795
v  368.639 0 337.795
v  375.92 0 329.673
v  368.639 150 337.795
v  375.92 0 329.673
v  375.92 150 329.673
v  375.92 150 329.673
v  375.92 0 329.673
v  383.022 0 321.394
v  375.92 150 329.673
v  383.022 0 321.394
v  383.022 150 321.394
v  383.022 150 321.394
v  383.022 0 321.394
v  389.942 0 312.962
v  383.022 150 321.394
v  389.942 0 312.962
v  389.942 150 312.962
v  389.942 150 312.962
v  389.942 0 312.962
v  396.677 0 304.381
v  389.942 150 312.962
v  396.677 0 304.381
v  396.677 150 304.381
v  396.677 150 304.381
v  396.677 0 304.381
v  403.222 0 295.655
v  396.677 150 304.381
v  403.222 0 295.655
v  403.222 150 295.655
v  403.222 150 295.655
v  403.222 0 295.655
v  409.576 0 286.788
v  403.222 150 295.655
v  409.576 0 286.788
v  409.576 150 286.788
v  409.576 150 286.788
v  409.576 0 286.788
v  415.735 0 277.785
v  409.576 150 286.788
v  415.735 0 277.785
v  415.735 150 277.785
v  415.735 150 277.785
v  415.735 0 277.785
v  421.696 0 268.65
v  415.735 150 277.785
v  421.696 0 268.65
v  421.696 150 268.65
v  421.696 150 268.65
v  421.696 0 268.65
v  427.456 0 259.387
v  421.696 150 268.65
v  427.456 0 259.387
v  427.456 150 259.387
v  427.456 150 259.387
v  427.456 0 259.387
v  433.013 0 250
v  427.456 150 259.387
v  433.013 0 250
v  433.013 150 250
v  433.013 150 250
v  433.013 0 250
v  438.363 0 240.494
v  433.013 150 250
v  438.363 0 240.494
v  438.363 150 240.494
v  438.363 150 240.494
v  438.363 0 240.494
v  443.505 0 230.874
v  438.363 150 240.494
v  443.505 0 230.874
v  443.505 150 230.874
v  443.505 150 230.874
v  443.505 0 230.874
v  448.436 0 221.144
v  443.505 150 230.874
v  448.436 0 221.144
v  448.436 150 221.144
v  448.436 150 221.144
v  448.436 0 221.144
v  453.154 0 211.309
v  448.436 150 221.144
v  453.154 0 211.309
v  453.154 150 211.309
v  453.154 150 211.309
v  453.154 0 211.309
v  457.656 0 201.373
v  453.154 150 211.309
v  457.656 0 201.373
v  457.656 150 201.373
v  457.656 150 201.373
v  457.656 0 201.373
v  461.94 0 191.342
v  457.656 150 201.373
v  461.94 0 191.342
v  461.94 150 191.342
v  353.553 150 353.553
v  361.182 150 345.757
v  0 150 0
v  0 150 0
v  361.182 150 345.757
v  368.639 150 337.795
v  0 150 0
v  368.639 150 337.795
v  375.92 150 329.673
v  375.92 150 329.673
v  383.022 150 321.394
v  0 150 0
v  0 150 0
v  383.022 150 321.394
v  389.942 150 312.962
v  0 150 0
v  389.942 150 312.962
v  396.677 150 304.381
v  396.677 150 304.381
v  403.222 150 295.655
v  0 150 0
v  0 150 0
v  403.222 150 295.655
v  409.576 150 286.788
v  0 150 0
v  409.576 150 286.788
v  415.735 150 277.785
v  415.735 150 277.785
v  421.696 150 268.65
v  0 150 0
v  0 150 0
v  421.696 150 268.65
v  427.456 150 259.387
v  0 150 0
v  427.456 150 259.387
v  433.013 150 250
v  433.013 150 250
v  438.363 150 240.494
v  0 150 0
v  0 150 0
v  438.363 150 240.494
v  443.505 150 230.874
v  0 150 0
v  443.505 150 230.874
v  448.436 150 221.144
v  448.436 150 221.144
v  453.154 150 211.309
v  0 150 0
v  0 150 0
v  453.154 150 211.309
v  457.656 150 201.373
v  0 150 0
v  457.656 150 201.373
v  461.94 150 191.342
v  461.94 0 191.342
v  457.656 0 201.373
v  0 0 0
v  0 0 0
v  457.656 0 201.373
v  453.154 0 211.309
v  0 0 0
v  453.154 0 211.309
v  448.436 0 221.144
v  448.436 0 221.144
v  443.505 0 230.874
v  0 0 0
v  0 0 0
v  443.505 0 230.874
v  438.363 0 240.494
v  0 0 0
v  438.363 0 240.494
v  433.013 0 250
v  433.013 0 250
v  427.456 0 259.387
v  0 0 0
v  0 0 0
v  427.456 0 259.387
v  421.696 0 268.65
v  0 0 0
v  421.696 0 268.65
v  415.735 0 277.785
v  415.735 0 277.785
v  409.576 0 286.788
v  0 0 0
v  0 0 0
v  409.576 0 286.788
v  403.222 0 295.655
v  0 0 0
v  403.222 0 295.655
v  396.677 0 304.381
v  396.677 0 304.381
v  389.942 0 312.962
v  0 0 0
v  0 0 0
v  389.942 0 312.962
v  383.022 0 321.394
v  0 0 0
v  383.022 0 321.394
v  375.92 0 329.673
v  375.92 0 329.673
v  368.639 0 337.795
v  0 0 0
v  0 0 0
v  368.639 0 337.795
v  361.182 0 345.757
v  0 0 0
v  361.182 0 345.757
v  353.553 0 353.553

# 0 UV coordinates

# 228 vertex normals
vn -0.707107 0 0.707107
vn -0.707107 0 0.707107
vn -0.707107 0 0.707107
vn -0.707107 0 0.707107
vn -0.707107 0 0.707107
vn -0.707107 0 0.707107
vn 0.382683 0 -0.92388
vn 0.382683 0 -0.92388
vn 0.382683 0 -0.92388
vn 0.382683 0 -0.92388
vn 0.382683 0 -0.92388
vn 0.382683 0 -0.92388
vn 0.714778 -0 0.699352
vn 0.714778 -0 0.699352
vn 0.714778 -0 0.699352
vn 0.714778 -0 0.699352
vn 0.714778 -0 0.699352
vn 0.714778 0 0.699352
vn 0.729864 0 0.683592
vn 0.729864 0 0.683592
vn 0.729864 0 0.683592
vn 0.729864 0 0.683592
vn 0.729864 0 0.683592
vn 0.729864 0 0.683592
vn 0.744603 0 0.667508
vn 0.744603 0 0.667508
vn 0.744603 0 0.667508
vn 0.744603 0 0.667508
vn 0.744603 0 0.667508
vn 0.744603 0 0.667508
vn 0.758987 0 0.651105
vn 0.758987 0 0.651105
vn 0.758987 0 0.651105
vn 0.758987 0 0.651105
vn 0.758987 0 0.651105
vn 0.758987 0 0.651105
vn 0.77301 0 0.634393
vn 0.77301 0 0.634393
vn 0.77301 0 0.634393
vn 0.77301 0 0.634393
vn 0.77301 0 0.634393
vn 0.77301 0 0.634393
vn 0.786666 0 0.617379
vn 0.786666 0 0.617379
vn 0.786666 0 0.617379
vn 0.786666 0 0.617379
vn 0.786666 0 0.617379
vn 0.786666 0 0.617379
vn 0.799947 0 0.600071
vn 0.799947 0 0.600071
vn 0.799947 0 0.600071
vn 0.799947 0 0.600071
vn 0.799947 0 0.600071
vn 0.799947 0 0.600071
vn 0.812847 0 0.582478
vn 0.812847 0 0.582478
vn 0.812847 0 0.582478
vn 0.812847 0 0.582478
vn 0.812847 0 0.582478
vn 0.812847 0 0.582478
vn 0.82536 0 0.564607
vn 0.82536 0 0.564607
vn 0.82536 0 0.564607
vn 0.82536 0 0.564607
vn 0.82536 0 0.564607
vn 0.82536 0 0.564607
vn 0.83748 0 0.546467
vn 0.83748 0 0.546467
vn 0.83748 0 0.546467
vn 0.83748 0 0.546467
vn 0.83748 0 0.546467
vn 0.83748 0 0.546467
vn 0.849202 0 0.528068
vn 0.849202 0 0.528068
vn 0.849202 0 0.528068
vn 0.849202 0 0.528068
vn 0.849202 0 0.528068
vn 0.849202 0 0.528068
vn 0.86052 0 0.509417
vn 0.86052 0 0.509417
vn 0.86052 0 0.509417
vn 0.86052 0 0.509417
vn 0.86052 0 0.509417
vn 0.86052 0 0.509417
vn 0.871428 0 0.490524
vn 0.871428 0 0.490524
vn 0.871428 0 0.490524
vn 0.871428 0 0.490524
vn 0.871428 0 0.490524
vn 0.871428 0 0.490524
vn 0.881921 0 0.471397
vn 0.881921 0 0.471397
vn 0.881921 0 0.471397
vn 0.881921 0 0.471397
vn 0.881921 0 0.471397
vn 0.881921 0 0.471397
vn 0.891995 0 0.452046
vn 0.891995 0 0.452046
vn 0.891995 0 0.452046
vn 0.891995 0 0.452046
vn 0.891995 0 0.452046
vn 0.891995 0 0.452046
vn 0.901644 0 0.432479
vn 0.901644 0 0.432479
vn 0.901644 0 0.432479
vn 0.901644 0 0.432479
vn 0.901644 0 0.432479
vn 0.901644 0 0.432479
vn 0.910864 0 0.412707
vn 0.910864 0 0.412707
vn 0.910864 0 0.412707
vn 0.910864 0 0.412707
vn 0.910864 0 0.412707
vn 0.910864 0 0.412707
vn 0.91965 0 0.392738
vn 0.91965 0 0.392738
vn 0.91965 0 0.392738
vn 0.91965 0 0.392738
vn 0.91965 0 0.392738
vn 0.91965 0 0.392738
vn 0 1 0
vn 0 1 0
vn 0 1 0
vn 0 1 0
vn 0 1 0
vn 0 1 0
vn 0 1 0
vn 0 1 0
vn 0 1 0
vn 0 1 0
vn 0 1 0
vn 0 1 0
vn 0 1 0
vn 0 1 0
vn 0 1 0
vn 0 1 0
vn 0 1 0
vn 0 1 0
vn 0 1 0
vn 0 1 0
vn 0 1 0
vn 0 1 0
vn 0 1 0
vn 0 1 0
vn 0 1 0
vn 0 1 0
vn 0 1 0
vn 0 1 0
vn 0 1 0
vn 0 1 0
vn 0 1 0
vn 0 1 0
vn 0 1 0
vn 0 1 0
vn 0 1 0
vn 0 1 0
vn 0 1 0
vn 0 1 0
vn 0 1 0
vn 0 1 0
vn 0 1 0
vn 0 1 0
vn 0 1 0
vn 0 1 0
vn 0 1 0
vn 0 1 0
vn 0 1 0
vn 0 1 0
vn 0 1 0
vn 0 1 0
vn 0 1 0
vn 0 1 0
vn 0 1 0
vn 0 1 0
vn -0 -1 0
vn -0 -1 0
vn -0 -1 0
vn -0 -1 0
vn -0 -1 0
vn 0 -1 0
vn -0 -1 0
vn 0 -1 0
vn 0 -1 0
vn 0 -1 0
vn -0 -1 0
vn -0 -1 0
vn -0 -1 0
vn -0 -1 0
vn 0 -1 0
vn -0 -1 0
vn 0 -1 0
vn 0 -1 0
vn 0 -1 0
vn -0 -1 0
vn -0 -1 0
vn -0 -1 0
vn -0 -1 0
vn 0 -1 0
vn -0 -1 0
vn 0 -1 0
vn 0 -1 0
vn 0 -1 0
vn -0 -1 0
vn -0 -1 0
vn -0 -1 0
vn -0 -1 0
vn 0 -1 0
vn -0 -1 0
vn 0 -1 0
vn 0 -1 0
vn 0 -1 0
vn -0 -1 0
vn -0 -1 0
vn -0 -1 0
vn -0 -1 0
vn 0 -1 0
vn -0 -1 0
vn 0 -1 0
vn 0 -1 0
vn 0 -1 0
vn -0 -1 0
vn -0 -1 0
vn -0 -1 0
vn -0 -1 0
vn 0 -1 0
vn -0 -1 0
vn 0 -1 0
vn 0 -1 0

# Mesh '<STL_BINARY>' with 76 faces
g <STL_BINARY>
usemtl DefaultMaterial
f  1//1 2//2 3//3
f  4//4 5//5 6//6
f  7//7 8//8 9//9
f  10//10 11//11 12//12
f  13//13 14//14 15//15
f  16//16 17//17 18//18
f  19//19 20//20 21//21
f  22//22 23//23 24//24
f  25//25 26//26 27//27
f  28//28 29//29 30//30
f  31//31 32//32 33//33
f  34//34 35//35 36//36
f  37//37 38//38 39//39
f  40//40 41//41 42//42
f  43//43 44//44 45//45
f  46//46 47//47 48//48
f  49//49 50//50 51//51
f  52//52 53//53 54//54
f  55//55 56//56 57//57
f  58//58 59//59 60//60
f  61//61 62//62 63//63
f  64//64 65//65 66//66
f  67//67 68//68 69//69
f  70//70 71//71 72//72
f  73//73 74//74 75//75
f  76//76 77//77 78//78
f  79//79 80//80 81//81
f  82//82 83//83 84//84
f  85//85 86//86 87//87
f  88//88 89//89 90//90
f  91//91 92//92 93//93
f  94//94 95//95 96//96
f  97//97 98//98 99//99
f  100//100 101//101 102//102
f  103//103 104//104 105//105
f  106//106 107//107 108//108
f  109//109 110//110 111//111
f  112//112 113//113 114//114
f  115//115 116//116 117//117
f  118//118 119//119 120//120
f  121//121 122//122 123//123
f  124//124 125//125 126//126
f  127//127 128//128 129//129
f  130//130 131//131 132//132
f  133//133 134//134 135//135
f  136//136 137//137 138//138
f  139//139 140//140 141//141
f  142//142 143//143 144//144
f  145//145 146//146 147//147
f  148//148 149//149 150//150
f  151//151 152//152 153//153
f  154//154 155//155 156//156
f  157//157 158//158 159//159
f  160//160 161//161 162//162
f  163//163 164//164 165//165
f  166//166 167//167 168//168
f  169//169 170//170 171//171
f  172//172 173//173 174//174
f  175//175 176//176 177//177
f  178//178 179//179 180//180
f  181//181 182//182 183//183
f  184//184 185//185 186//186
f  187//187 188//188 189//189
f  190//190 191//191 192//192
f  193//193 194//194 195//195
f  196//196 197//197 198//198
f  199//199 200//200 201//201
f  202//202 203//203 204//204
f  205//205 206//206 207//207
f  208//208 209//209 210//210
f  211//211 212//212 213//213
f  214//214 215//215 216//216
f  217//217 218//218 219//219
f  220//220 221//221 222//222
f  223//223 224//224 225//225
f  226//226 227//227 228//228

